<?xml version="1.0" encoding="utf-8"?>
<svg version="1.1" xmlns:xlink="http://www.w3.org/1999/xlink" width="380px" height="249px" xmlns="http://www.w3.org/2000/svg">
  <g transform="matrix(1 0 0 1 -707 -316 )">
    <path d="M 707 316  L 1087 316  L 1087 565  L 707 565  L 707 316  " fill-rule="nonzero" fill="#cccccc" stroke="none" />
    <path d="M 724 333  L 1070 333  L 1070 548  L 724 548  L 724 333  " fill-rule="nonzero" fill="#ffffff" stroke="none" />
    <path d="M 923.2750000000001 390.70000000000005  C 912.817 390.70000000000005  904.6 382.48300000000006  904.6 372.02500000000003  C 904.6 361.567  912.817 353.35  923.2750000000001 353.35  C 933.7330000000001 353.35  941.95 361.567  941.95 372.02500000000003  C 941.95 382.48300000000006  933.7330000000001 390.70000000000005  923.2750000000001 390.70000000000005  " fill-rule="nonzero" fill="#cccccc" stroke="none" />
    <path d="M 730 542  L 730 430.35  L 813.5 379.6  L 930.4 462.18894736842105  L 997.2 410.04999999999995  L 1064 462.18894736842105  L 1064 542  L 730 542  " fill-rule="nonzero" fill="#169bd5" stroke="none" />
  </g>
</svg>