<?xml version="1.0" encoding="utf-8"?>
<svg version="1.1" xmlns:xlink="http://www.w3.org/1999/xlink" width="379px" height="249px" xmlns="http://www.w3.org/2000/svg">
  <g transform="matrix(1 0 0 1 -1360 -316 )">
    <path d="M 1360 316  L 1739 316  L 1739 565  L 1360 565  L 1360 316  " fill-rule="nonzero" fill="#cccccc" stroke="none" />
    <path d="M 1377 333  L 1722 333  L 1722 548  L 1377 548  L 1377 333  " fill-rule="nonzero" fill="#ffffff" stroke="none" />
    <path d="M 1575.7549999999999 390.70000000000005  C 1565.2969999999998 390.70000000000005  1557.08 382.48300000000006  1557.08 372.02500000000003  C 1557.08 361.567  1565.2969999999998 353.35  1575.7549999999999 353.35  C 1586.213 353.35  1594.4299999999998 361.567  1594.4299999999998 372.02500000000003  C 1594.4299999999998 382.48300000000006  1586.213 390.70000000000005  1575.7549999999999 390.70000000000005  " fill-rule="nonzero" fill="#cccccc" stroke="none" />
    <path d="M 1383 542  L 1383 430.35  L 1466.25 379.6  L 1582.8 461.978364116095  L 1649.4 410.04999999999995  L 1716 461.978364116095  L 1716 542  L 1383 542  " fill-rule="nonzero" fill="#169bd5" stroke="none" />
  </g>
</svg>