<?xml version="1.0" encoding="utf-8"?>
<svg version="1.1" xmlns:xlink="http://www.w3.org/1999/xlink" width="374px" height="248px" xmlns="http://www.w3.org/2000/svg">
  <g transform="matrix(1 0 0 1 -1362 -608 )">
    <path d="M 1362 608  L 1736 608  L 1736 856  L 1362 856  L 1362 608  " fill-rule="nonzero" fill="#cccccc" stroke="none" />
    <path d="M 1379 625  L 1719 625  L 1719 839  L 1379 839  L 1379 625  " fill-rule="nonzero" fill="#ffffff" stroke="none" />
    <path d="M 1575.08 682.4000000000001  C 1564.664 682.4000000000001  1556.48 674.2160000000001  1556.48 663.8000000000001  C 1556.48 653.384  1564.664 645.2  1575.08 645.2  C 1585.496 645.2  1593.68 653.384  1593.68 663.8000000000001  C 1593.68 674.2160000000001  1585.496 682.4000000000001  1575.08 682.4000000000001  " fill-rule="nonzero" fill="#cccccc" stroke="none" />
    <path d="M 1385 833  L 1385 721.9  L 1467 671.4  L 1581.8 752.6320855614973  L 1647.4 701.7  L 1713 752.6320855614973  L 1713 833  L 1385 833  " fill-rule="nonzero" fill="#169bd5" stroke="none" />
  </g>
</svg>