<?xml version="1.0" encoding="utf-8"?>
<svg version="1.1" xmlns:xlink="http://www.w3.org/1999/xlink" width="375px" height="249px" xmlns="http://www.w3.org/2000/svg">
  <g transform="matrix(1 0 0 1 -705 -318 )">
    <path d="M 705 318  L 1080 318  L 1080 567  L 705 567  L 705 318  " fill-rule="nonzero" fill="#cccccc" stroke="none" />
    <path d="M 722 335  L 1063 335  L 1063 550  L 722 550  L 722 335  " fill-rule="nonzero" fill="#ffffff" stroke="none" />
    <path d="M 918.675 392.70000000000005  C 908.217 392.70000000000005  900 384.48300000000006  900 374.02500000000003  C 900 363.567  908.217 355.35  918.675 355.35  C 929.133 355.35  937.35 363.567  937.35 374.02500000000003  C 937.35 384.48300000000006  929.133 392.70000000000005  918.675 392.70000000000005  " fill-rule="nonzero" fill="#cccccc" stroke="none" />
    <path d="M 728 544  L 728 432.35  L 810.25 381.6  L 925.4 463.1248  L 991.2 412.04999999999995  L 1057 463.1248  L 1057 544  L 728 544  " fill-rule="nonzero" fill="#169bd5" stroke="none" />
  </g>
</svg>