<?xml version="1.0" encoding="utf-8"?>
<svg version="1.1" xmlns:xlink="http://www.w3.org/1999/xlink" width="377px" height="249px" xmlns="http://www.w3.org/2000/svg">
  <g transform="matrix(1 0 0 1 -1361 -321 )">
    <path d="M 1361 321  L 1738 321  L 1738 570  L 1361 570  L 1361 321  " fill-rule="nonzero" fill="#cccccc" stroke="none" />
    <path d="M 1378 338  L 1721 338  L 1721 553  L 1378 553  L 1378 338  " fill-rule="nonzero" fill="#ffffff" stroke="none" />
    <path d="M 1575.715 395.70000000000005  C 1565.2569999999998 395.70000000000005  1557.04 387.48300000000006  1557.04 377.02500000000003  C 1557.04 366.567  1565.2569999999998 358.35  1575.715 358.35  C 1586.173 358.35  1594.3899999999999 366.567  1594.3899999999999 377.02500000000003  C 1594.3899999999999 387.48300000000006  1586.173 395.70000000000005  1575.715 395.70000000000005  " fill-rule="nonzero" fill="#cccccc" stroke="none" />
    <path d="M 1384 547  L 1384 435.35  L 1466.75 384.6  L 1582.6 466.55384615384617  L 1648.8 415.04999999999995  L 1715 466.55384615384617  L 1715 547  L 1384 547  " fill-rule="nonzero" fill="#169bd5" stroke="none" />
  </g>
</svg>